<?xml version="1.0" encoding="UTF-8"?>
<svg id="Capa_2" data-name="Capa 2" xmlns="http://www.w3.org/2000/svg" viewBox="0 0 968.53 539.97">
  <defs>
    <style>
      .cls-1 {
        fill: #b6cbdd;
        stroke-width: 0px;
      }
    </style>
  </defs>
  <g id="Capa_1-2" data-name="Capa 1">
    <path class="cls-1" d="m965.17,34.19l3.36-.17V0h-33.88l-.02,3.5c-.05,10.95-9,19.86-19.95,19.86s-19.88-8.91-19.93-19.86l-.02-3.5h-31.43l-.02,3.5c-.05,10.95-9,19.86-19.95,19.86s-19.88-8.91-19.93-19.86l-.02-3.5h-31.45l-.02,3.5c-.07,10.95-9,19.86-19.95,19.86s-19.88-8.91-19.95-19.86l-.02-3.5h-31.41l-.02,3.5c-.07,10.95-9,19.86-19.95,19.86s-19.88-8.91-19.95-19.86l-.02-3.5h-31.45l-.02,3.5c-.05,10.95-9,19.86-19.93,19.86s-19.91-8.91-19.95-19.86l-.02-3.5h-31.43l-.02,3.5c-.05,10.95-9,19.86-19.93,19.86-7.79,0-14.55-4.52-17.83-11.06V0h-33.88l-.02,3.5c-.05,10.91-8.92,19.77-19.81,19.85-10.86-.08-19.74-8.95-19.81-19.85V0h-37.88c2.82,0,3,6.54,1.86,15.71-3.66,4.65-9.32,7.65-15.67,7.65-10.93,0-19.88-8.91-19.93-19.86l-.02-3.5h-31.45l-.02,3.5c-.07,10.95-9,19.86-19.95,19.86s-19.88-8.91-19.95-19.86l-.02-3.5h-31.41l-.02,3.5c-.07,10.95-9,19.86-19.95,19.86s-19.88-8.91-19.95-19.86l-.02-3.5h-31.45l-.02,3.5c-.05,10.95-9,19.86-19.93,19.86s-19.91-8.91-19.95-19.86l-.02-3.5h-31.43l-.02,3.5c-.05,10.95-9,19.86-19.93,19.86s-19.91-8.91-19.95-19.86l-.02-3.5h-31.45l-.02,3.5c-.05,10.95-9,19.86-19.95,19.86S37.96,14.45,37.88,3.5V0H0v34l3.33.19c10.55.55,18.83,9.29,18.83,19.88s-8.29,19.33-18.83,19.88l-3.33.19v31.26l3.33.17c10.55.57,18.83,9.31,18.83,19.91s-8.29,19.33-18.83,19.88l-3.33.17v31.24l3.33.17c10.55.57,18.83,9.31,18.83,19.91s-8.29,19.33-18.83,19.88l-3.33.17v31.29l3.33.17c10.55.55,18.83,9.29,18.83,19.88s-8.29,19.33-18.83,19.91l-3.33.17v31.24l3.33.17c10.55.57,18.83,9.29,18.83,19.88s-8.29,19.33-18.83,19.91l-3.33.17v31.26l3.33.19c3.91.19,7.48,1.52,10.45,3.64.48.31.93.67,1.36,1.05,3.02,2.57,5.26,6.02,6.31,9.98.48,1.67.71,3.41.71,5.21v.48c-.02.45-.05.88-.07,1.31-.07.71-.17,1.38-.31,2.07v.02c-.71,3.62-2.4,6.93-4.83,9.55-1.45,1.6-3.17,2.95-5.07,4.02-2.55,1.4-5.45,2.29-8.55,2.43l-3.33.19v31.22l3.33.19c10.55.55,18.83,9.29,18.83,19.88,0,4.17-1.26,8-3.45,11.22-.26.4-.57.81-.86,1.19-3.45,4.31-8.64,7.17-14.52,7.48l-3.33.19v37.53h37.69l.31-3.17c.24-2.33.86-4.5,1.81-6.5.86-1.86,2-3.55,3.36-5.02.24-.24.45-.48.69-.69,0-.02.02-.02.05-.05,3.6-3.5,8.52-5.64,13.93-5.64,5.81,0,11.05,2.45,14.69,6.43,1.33,1.43,2.45,3.07,3.29,4.88.98,2.02,1.62,4.24,1.86,6.6l.33,3.17h31.07l.33-3.17c1.02-10.22,9.55-17.91,19.83-17.91s18.79,7.69,19.83,17.91l.31,3.17h31.05l.31-3.17c1.05-10.22,9.57-17.91,19.86-17.91s18.79,7.69,19.83,17.91l.31,3.17h31.07l.33-3.17c1.02-10.22,9.57-17.91,19.83-17.91s18.79,7.69,19.83,17.91l.33,3.17h31.03l.33-3.17c1.02-10.22,9.57-17.91,19.83-17.91s18.79,7.69,19.83,17.91l.33,3.17h31.07l.31-3.17c1.05-10.22,9.57-17.91,19.83-17.91,5.62,0,10.69,2.3,14.33,6.05-.28,4.95-.52,9.95-.52,15.03h37.69l.31-3.17c.24-2.33.86-4.5,1.81-6.5.86-1.86,2-3.55,3.36-5.02.24-.24.45-.48.69-.69,3.61-3.52,8.49-5.65,13.84-5.68,10.22.07,18.67,7.73,19.69,17.9l.33,3.17h33.69v-10.09c3.28-6.57,10.05-10.98,17.83-10.98,10.26,0,18.79,7.69,19.83,17.91l.31,3.17h31.05l.31-3.17c1.05-10.22,9.57-17.91,19.86-17.91s18.79,7.69,19.83,17.91l.31,3.17h31.07l.33-3.17c1.02-10.22,9.57-17.91,19.83-17.91s18.79,7.69,19.83,17.91l.33,3.17h31.03l.33-3.17c1.02-10.22,9.57-17.91,19.83-17.91s18.79,7.69,19.83,17.91l.33,3.17h31.07l.31-3.17c1.05-10.22,9.57-17.91,19.83-17.91s18.81,7.69,19.83,17.91l.33,3.17h31.05l.31-3.17c1.05-10.22,9.57-17.91,19.83-17.91s18.81,7.69,19.83,17.91l.33,3.17h33.69v-37.55l-3.36-.17c-10.62-.5-18.95-9.24-18.95-19.88s8.33-19.38,18.95-19.88l3.36-.17v-31.26l-3.36-.17c-10.62-.5-18.95-9.24-18.95-19.88s8.33-19.38,18.95-19.88l3.36-.17v-31.31l-3.36-.14c-10.62-.5-18.95-9.24-18.95-19.91s8.33-19.38,18.95-19.88l3.36-.14v-31.29l-3.36-.14c-10.62-.52-18.95-9.24-18.95-19.91s8.33-19.38,18.95-19.88l3.36-.17v-31.29l-3.36-.17c-10.62-.5-18.95-9.24-18.95-19.88s8.33-19.38,18.95-19.88l3.36-.17v-31.29l-3.36-.14c-10.62-.5-18.95-9.24-18.95-19.88s8.33-19.41,18.95-19.91l3.36-.14v-31.31l-3.36-.17c-10.62-.5-18.95-9.24-18.95-19.88s8.33-19.38,18.95-19.88Z"/>
  </g>
</svg>