<?xml version="1.0" encoding="UTF-8"?>
<svg id="Capa_2" data-name="Capa 2" xmlns="http://www.w3.org/2000/svg" viewBox="0 0 1012.52 640.95">
  <defs>
    <style>
      .cls-1 {
        fill: #a5af8b;
        stroke-width: 0px;
      }
    </style>
  </defs>
  <g id="Capa_1-2" data-name="Capa 1">
    <path class="cls-1" d="m977.1,0l-.02,3.66c-.05,11.45-9.41,20.76-20.86,20.76s-20.79-9.31-20.84-20.76l-.02-3.66h-32.86l-.02,3.66c-.05,11.45-9.41,20.76-20.86,20.76s-20.79-9.31-20.84-20.76l-.02-3.66h-32.88l-.02,3.66c-.07,11.45-9.41,20.76-20.86,20.76s-20.79-9.31-20.86-20.76l-.02-3.66h-32.83l-.02,3.66c-.07,11.45-9.41,20.76-20.86,20.76s-20.79-9.31-20.86-20.76l-.02-3.66h-32.88l-.02,3.66c-.05,11.45-9.41,20.76-20.84,20.76s-20.81-9.31-20.86-20.76l-.02-3.66h-32.86l-.02,3.66c-.05,11.45-9.41,20.76-20.84,20.76-8.14,0-15.21-4.72-18.64-11.56V0h-35.42l-.02,3.66c-.05,11.4-9.33,20.67-20.71,20.75-11.36-.08-20.64-9.35-20.71-20.75V0h-39.6c2.95,0,3.13,6.83,1.95,16.42-3.83,4.86-9.75,8-16.38,8-11.43,0-20.79-9.31-20.84-20.76l-.02-3.66h-32.88l-.02,3.66c-.07,11.45-9.41,20.76-20.86,20.76s-20.79-9.31-20.86-20.76l-.02-3.66h-32.83l-.02,3.66c-.07,11.45-9.41,20.76-20.86,20.76s-20.79-9.31-20.86-20.76l-.02-3.66h-32.88l-.02,3.66c-.05,11.45-9.41,20.76-20.84,20.76s-20.81-9.31-20.86-20.76l-.02-3.66h-32.86l-.02,3.66c-.05,11.45-9.41,20.76-20.84,20.76s-20.81-9.31-20.86-20.76l-.02-3.66h-32.88l-.02,3.66c-.05,11.45-9.41,20.76-20.86,20.76S39.68,15.11,39.6,3.66V0H0v640.95h39.41l.32-3.31c.25-2.44.9-4.7,1.89-6.8.9-1.94,2.09-3.71,3.51-5.25.25-.25.47-.5.72-.72,0-.02.02-.02.05-.05,3.76-3.66,8.91-5.9,14.56-5.9,6.07,0,11.55,2.56,15.36,6.72,1.39,1.49,2.56,3.21,3.44,5.1,1.02,2.12,1.69,4.43,1.94,6.9l.35,3.31h32.49l.35-3.31c1.07-10.68,9.98-18.72,20.74-18.72s19.64,8.04,20.74,18.72l.32,3.31h32.46l.32-3.31c1.1-10.68,10.01-18.72,20.76-18.72s19.64,8.04,20.74,18.72l.32,3.31h32.49l.35-3.31c1.07-10.68,10.01-18.72,20.74-18.72s19.64,8.04,20.74,18.72l.35,3.31h32.44l.35-3.31c1.07-10.68,10.01-18.72,20.74-18.72s19.64,8.04,20.74,18.72l.35,3.31h32.49l.32-3.31c1.1-10.68,10.01-18.72,20.74-18.72,5.87,0,11.18,2.41,14.98,6.32-.29,5.18-.54,10.4-.54,15.71h39.41l.32-3.31c.25-2.44.9-4.7,1.89-6.8.9-1.94,2.09-3.71,3.51-5.25.25-.25.47-.5.72-.72,3.78-3.68,8.87-5.9,14.47-5.94,10.68.08,19.52,8.08,20.58,18.71l.35,3.31h35.22v-10.55c3.43-6.87,10.5-11.48,18.64-11.48,10.73,0,19.64,8.04,20.74,18.72l.32,3.31h32.46l.32-3.31c1.1-10.68,10.01-18.72,20.76-18.72s19.64,8.04,20.74,18.72l.32,3.31h32.49l.35-3.31c1.07-10.68,10.01-18.72,20.74-18.72s19.64,8.04,20.74,18.72l.35,3.31h32.44l.35-3.31c1.07-10.68,10.01-18.72,20.74-18.72s19.64,8.04,20.74,18.72l.35,3.31h32.49l.32-3.31c1.1-10.68,10.01-18.72,20.74-18.72s19.67,8.04,20.74,18.72l.35,3.31h32.46l.32-3.31c1.1-10.68,10.01-18.72,20.74-18.72s19.67,8.04,20.74,18.72l.35,3.31h35.22V0h-35.42Z"/>
  </g>
</svg>