<?xml version="1.0" encoding="UTF-8"?>
<svg id="Capa_2" data-name="Capa 2" xmlns="http://www.w3.org/2000/svg" viewBox="0 0 804.38 541">
  <defs>
    <style>
      .cls-1 {
        fill: #846f61;
      }

      .cls-1, .cls-2, .cls-3, .cls-4 {
        stroke-width: 0px;
      }

      .cls-2 {
        fill: #d96f26;
      }

      .cls-3 {
        fill: #b6cbdd;
      }

      .cls-4 {
        fill: #a5af8b;
      }
    </style>
  </defs>
  <g id="Capa_1-2" data-name="Capa 1">
    <g>
      <g>
        <path class="cls-4" d="m122.44,323.82c-14.81,0-33.71,6.19-42.34,23.55-.97,1.95-1.73,3.79-2.4,5.6-7.29-7.19-17.66-11.04-30.39-11.04s-24.01,3.58-32.45,10.21v-2.04c0-4.17-3.26-7.43-7.43-7.43s-7.43,3.26-7.43,7.43v83.48c0,4.17,3.26,7.43,7.43,7.43s7.43-3.26,7.43-7.43v-60.55c5.38-10.12,17.65-16.61,31.53-16.61,19.61,0,28.74,9.78,28.74,30.78v46.38c0,4.17,3.26,7.43,7.43,7.43s7.43-3.26,7.43-7.43v-46.56c0-.46.03-.89.06-1.33l.07-1.19-.09-.43c-.01-.08-.03-.15-.04-.22v-14.94c0-21.14,15.83-30.6,31.53-30.6,19.61,0,28.74,9.78,28.74,30.78v64.49c0,4.17,3.26,7.43,7.43,7.43s7.43-3.26,7.43-7.43v-65.23c0-27.88-15.95-44.53-42.68-44.53Z"/>
        <path class="cls-3" d="m651.98,326.72c-14.81,0-33.71,6.19-42.34,23.55-.97,1.95-1.73,3.79-2.4,5.6-7.29-7.19-17.66-11.04-30.39-11.04s-24.01,3.58-32.45,10.21v-2.04c0-4.17-3.26-7.43-7.43-7.43s-7.43,3.26-7.43,7.43v83.48c0,4.17,3.26,7.43,7.43,7.43s7.43-3.26,7.43-7.43v-60.55c5.38-10.12,17.65-16.61,31.53-16.61,19.61,0,28.74,9.78,28.74,30.78v46.38c0,4.17,3.26,7.43,7.43,7.43s7.43-3.26,7.43-7.43v-46.56c0-.46.03-.9.06-1.33l.07-1.18-.09-.43c-.01-.08-.03-.15-.04-.22v-14.94c0-21.14,15.83-30.6,31.53-30.6,19.61,0,28.74,9.78,28.74,30.78v64.49c0,4.17,3.26,7.43,7.43,7.43s7.43-3.26,7.43-7.43v-65.23c0-27.88-15.95-44.53-42.68-44.53Z"/>
        <g>
          <path class="cls-2" d="m208.5,322.1c0-6.45-5.25-11.69-11.7-11.69s-11.69,5.25-11.69,11.69,5.25,11.7,11.69,11.7,11.7-5.25,11.7-11.7Z"/>
          <path class="cls-2" d="m215.53,426.53c-10.19-.89-11.29-13.12-11.29-18.36v-58.06c0-4.17-3.26-7.43-7.43-7.43s-7.43,3.26-7.43,7.43v58.06c0,16.68,7.29,28.33,19.85,31.92,1.37.46,3.8.93,6.13.93,4.53,0,7.24-3.68,7.24-7.25,0-3.94-3.16-7.15-7.07-7.24Z"/>
        </g>
        <path class="cls-3" d="m285.84,341.94c-12.78,0-24.01,3.58-32.45,10.21v-2.04c0-4.17-3.26-7.43-7.43-7.43s-7.43,3.26-7.43,7.43v83.48c0,4.17,3.26,7.43,7.43,7.43s7.43-3.26,7.43-7.43v-60.55c5.38-10.12,17.65-16.61,31.53-16.61,19.61,0,28.74,9.78,28.74,30.78v46.38c0,4.17,3.26,7.43,7.43,7.43s7.43-3.26,7.43-7.43v-47.12c0-27.88-15.95-44.53-42.68-44.53Z"/>
        <g>
          <path class="cls-1" d="m371.91,322.1c0-6.45-5.25-11.69-11.7-11.69s-11.69,5.25-11.69,11.69,5.25,11.7,11.69,11.7,11.7-5.25,11.7-11.7Z"/>
          <path class="cls-1" d="m378.93,426.53c-10.19-.89-11.29-13.12-11.29-18.36v-58.06c0-4.17-3.26-7.43-7.43-7.43s-7.43,3.26-7.43,7.43v58.06c0,16.68,7.29,28.33,19.85,31.92,1.37.46,3.8.93,6.13.93,4.53,0,7.24-3.68,7.24-7.25,0-3.94-3.16-7.15-7.07-7.24Z"/>
        </g>
        <g>
          <path class="cls-4" d="m444.71,324.61c4.17,0,7.43-3.26,7.43-7.43s-3.19-7.24-7.57-7.24h0c-21.39.87-33.77,13.02-35.17,34.32h-5.87c-3.99,0-7.25,3.25-7.25,7.25s3.25,7.24,7.25,7.24h5.74v75.31c0,4.17,3.26,7.43,7.43,7.43s7.43-3.26,7.43-7.43v-75.31h20.77c3.99,0,7.25-3.25,7.25-7.24s-3.25-7.25-7.25-7.25h-20.64c.96-13.11,7.55-19.38,20.46-19.64Z"/>
          <path class="cls-2" d="m497.27,426.99c-10.19-.89-11.29-13.12-11.29-18.36v-58.06c0-4.17-3.26-7.43-7.43-7.43s-7.43,3.26-7.43,7.43v58.06c0,16.68,7.29,28.33,19.85,31.92,1.38.46,3.81.92,6.13.92,4.53,0,7.24-3.68,7.24-7.25,0-3.94-3.16-7.15-7.07-7.24Z"/>
          <path class="cls-2" d="m490.25,322.56c0-6.45-5.25-11.69-11.7-11.69s-11.69,5.25-11.69,11.69,5.25,11.7,11.69,11.7,11.7-5.25,11.7-11.7Z"/>
        </g>
        <path class="cls-1" d="m797.13,336.27c-2.95,0-5.27,1.5-6.59,4.32l-32.72,76.38-32.14-75.84c-1.14-3.04-3.7-4.86-6.83-4.86-3.99,0-7.24,3.36-7.24,7.49,0,1.22.26,2.01.45,2.59l38.01,88.73-2.19,5.13c-5.02,11.79-10.92,18.12-17.53,18.82-3.76.4-6.49,3.55-6.49,7.47,0,4.13,3.25,7.49,7.25,7.49.45,0,1.49,0,2.63-.28,11.51-2.23,20.78-11.5,27.52-27.56l42.43-99.11c.42-.9.71-2.22.71-3.28,0-4.13-3.25-7.49-7.25-7.49Z"/>
      </g>
      <g>
        <path class="cls-1" d="m120,535.31l-.04-17.49-8.67,14.48h-2.19l-8.67-14.25v17.27h-4.67v-26.39h4.03l10.48,17.49,10.29-17.49h4.03l.04,26.39h-4.64Z"/>
        <path class="cls-1" d="m139.3,508.92h4.9v26.39h-4.9v-26.39Z"/>
        <path class="cls-1" d="m182.31,508.92v26.39h-4.03l-14.55-17.87v17.87h-4.86v-26.39h4.03l14.55,17.87v-17.87h4.86Z"/>
        <path class="cls-1" d="m196.93,508.92h4.9v26.39h-4.9v-26.39Z"/>
        <path class="cls-1" d="m251.7,535.31l-5.39-7.73c-.23.03-.57.04-1.02.04h-5.96v7.69h-4.9v-26.39h10.86c2.29,0,4.28.38,5.97,1.13s3,1.84,3.9,3.24c.91,1.41,1.36,3.08,1.36,5.01s-.48,3.69-1.45,5.13c-.97,1.43-2.36,2.5-4.17,3.2l6.07,8.67h-5.28Zm-1.77-20.88c-1.11-.91-2.73-1.36-4.86-1.36h-5.73v10.52h5.73c2.14,0,3.76-.46,4.86-1.38s1.66-2.22,1.66-3.9-.55-2.98-1.66-3.88Z"/>
        <path class="cls-1" d="m274.59,533.93c-2.16-1.17-3.86-2.79-5.09-4.86-1.23-2.07-1.85-4.39-1.85-6.96s.61-4.88,1.85-6.95c1.23-2.07,2.93-3.69,5.09-4.86s4.59-1.75,7.28-1.75,5.11.58,7.28,1.75c2.16,1.17,3.86,2.78,5.09,4.84s1.85,4.38,1.85,6.97-.62,4.91-1.85,6.97c-1.23,2.06-2.93,3.68-5.09,4.85-2.16,1.17-4.59,1.75-7.28,1.75s-5.11-.58-7.28-1.75Zm12.03-3.73c1.41-.79,2.51-1.9,3.32-3.32.8-1.42,1.21-3.01,1.21-4.77s-.4-3.35-1.21-4.77c-.8-1.42-1.91-2.53-3.32-3.32-1.41-.79-2.99-1.19-4.75-1.19s-3.34.4-4.75,1.19c-1.41.79-2.51,1.9-3.32,3.32s-1.21,3.01-1.21,4.77.4,3.35,1.21,4.77,1.91,2.53,3.32,3.32c1.41.79,2.99,1.19,4.75,1.19s3.34-.39,4.75-1.19Z"/>
        <path class="cls-1" d="m325.65,510.05c1.7.75,3,1.84,3.9,3.24.91,1.41,1.36,3.08,1.36,5.01s-.45,3.57-1.36,4.99-2.2,2.51-3.9,3.26-3.69,1.13-5.97,1.13h-5.96v7.62h-4.9v-26.39h10.86c2.29,0,4.28.38,5.97,1.13Zm-1.34,12.14c1.11-.91,1.66-2.2,1.66-3.88s-.55-2.98-1.66-3.88c-1.11-.91-2.73-1.36-4.86-1.36h-5.73v10.48h5.73c2.14,0,3.76-.45,4.86-1.36Z"/>
        <path class="cls-1" d="m359.14,529.2h-13.19l-2.6,6.11h-5.05l11.87-26.39h4.83l11.91,26.39h-5.13l-2.64-6.11Zm-1.62-3.85l-4.98-11.54-4.94,11.54h9.91Z"/>
        <path class="cls-1" d="m382.32,530.18c.58.58.87,1.33.87,2.26,0,.4-.06.82-.17,1.26-.11.44-.35,1.1-.7,1.98l-1.92,5.32h-3.05l1.51-5.77c-.55-.23-.99-.58-1.3-1.08-.32-.49-.47-1.06-.47-1.71,0-.93.29-1.69.87-2.26.58-.58,1.31-.87,2.19-.87s1.61.29,2.19.87Z"/>
        <path class="cls-1" d="m437.96,535.31l-.04-17.49-8.67,14.48h-2.19l-8.67-14.25v17.27h-4.68v-26.39h4.03l10.48,17.49,10.29-17.49h4.03l.04,26.39h-4.64Z"/>
        <path class="cls-1" d="m474.37,529.2h-13.19l-2.6,6.11h-5.05l11.87-26.39h4.82l11.91,26.39h-5.13l-2.64-6.11Zm-1.62-3.85l-4.98-11.54-4.94,11.54h9.91Z"/>
        <path class="cls-1" d="m508.34,535.31l-7.16-10.03-7.09,10.03h-5.58l9.8-13.46-9.27-12.93h5.54l6.75,9.39,6.67-9.39h5.32l-9.24,12.74,9.91,13.65h-5.65Z"/>
        <path class="cls-1" d="m524.51,508.92h4.9v26.39h-4.9v-26.39Z"/>
        <path class="cls-1" d="m579.13,529.2h-13.19l-2.6,6.11h-5.05l11.87-26.39h4.82l11.91,26.39h-5.13l-2.64-6.11Zm-1.62-3.85l-4.98-11.54-4.94,11.54h9.91Z"/>
        <path class="cls-1" d="m622.03,535.31l-.04-17.49-8.67,14.48h-2.19l-8.67-14.25v17.27h-4.68v-26.39h4.03l10.48,17.49,10.29-17.49h4.03l.04,26.39h-4.64Z"/>
        <path class="cls-1" d="m646.38,533.93c-2.16-1.17-3.86-2.79-5.09-4.86-1.23-2.07-1.85-4.39-1.85-6.96s.62-4.88,1.85-6.95,2.93-3.69,5.09-4.86,4.59-1.75,7.28-1.75,5.11.58,7.27,1.75,3.86,2.78,5.09,4.84,1.85,4.38,1.85,6.97-.62,4.91-1.85,6.97c-1.23,2.06-2.93,3.68-5.09,4.85-2.16,1.17-4.59,1.75-7.27,1.75s-5.12-.58-7.28-1.75Zm12.02-3.73c1.41-.79,2.51-1.9,3.32-3.32s1.21-3.01,1.21-4.77-.4-3.35-1.21-4.77-1.91-2.53-3.32-3.32c-1.41-.79-2.99-1.19-4.75-1.19s-3.34.4-4.75,1.19c-1.41.79-2.51,1.9-3.32,3.32s-1.21,3.01-1.21,4.77.4,3.35,1.21,4.77,1.91,2.53,3.32,3.32c1.41.79,2.99,1.19,4.75,1.19s3.34-.39,4.75-1.19Z"/>
        <path class="cls-1" d="m697.87,535.31l-5.39-7.73c-.23.03-.57.04-1.02.04h-5.96v7.69h-4.9v-26.39h10.86c2.29,0,4.28.38,5.98,1.13s3,1.84,3.9,3.24c.9,1.41,1.36,3.08,1.36,5.01s-.48,3.69-1.45,5.13c-.97,1.43-2.36,2.5-4.17,3.2l6.07,8.67h-5.28Zm-1.77-20.88c-1.11-.91-2.73-1.36-4.86-1.36h-5.73v10.52h5.73c2.14,0,3.76-.46,4.86-1.38,1.11-.92,1.66-2.22,1.66-3.9s-.55-2.98-1.66-3.88Z"/>
      </g>
      <g>
        <path class="cls-1" d="m434.15,111.4c-.51.11-1.03.24-1.44.56-.54.42-.78,1.13-.84,1.81-.15,1.96,1.03,3.75,1.61,5.63.8,2.55.47,5.42-.88,7.72-.37.63-.81,1.22-1.04,1.91s-.2,1.52.3,2.05c.49.52,1.27.6,1.98.61,1.81.03,3.62-.19,5.37-.66.78-.21,1.58-.48,2.17-1.04.67-.63.99-1.55,1.24-2.44,1.38-4.98,1.67-10.18,3.02-15.18.74-2.74.14-3.32-2.72-2.8s-5.87,1.16-8.79,1.81Z"/>
        <path class="cls-1" d="m433.2,96.83c.11-.04.22-.08.33-.12,1.28-.44,2.63-.59,3.97-.74.66-.07,1.37-.13,1.93.23.75.48.9,1.51.91,2.4,0,.85-.03,1.71-.13,2.56-.1.9-.28,1.82-.79,2.57-.71,1.05-1.93,1.59-3.08,2.11-2.02.9-4.04,1.89-5.65,3.4-.48.45-.98.98-1.64,1.04-.63.05-1.2-.36-1.67-.79-1.01-.93-1.61-1.99-2.34-3.11-1.28-1.97-2.67-3.99-4.11-5.85-.72-.93-.95-2.04-.05-3.03.64-.71,1.72-.97,2.63-.67.34.11.64.29.96.44.81.39,1.69.62,2.57.85,1.05.28,2.04.42,3.07.05s2.04-.95,3.09-1.36Z"/>
        <path class="cls-1" d="m445.88,89.11c-1.28-.39-2.59-.77-3.68-1.54s-1.95-2.01-1.87-3.35c.09-1.43,1.23-2.61,2.51-3.25s2.72-.88,4.09-1.29c1.55-.46,3.04-1.16,4.39-2.05.63-.41,1.26-.88,2.01-.96.35,1.44-.25,2.91-.77,4.29-.84,2.25-1.47,4.57-1.89,6.93-.14.77-.28,2.75-1.34,2.72-.43-.01-1.14-.64-1.54-.82-.62-.27-1.26-.48-1.9-.68Z"/>
        <path class="cls-1" d="m439.81,71.82c-.84.61-1.81.83-2.81.96-.89.12-1.75.42-2.67.42-.38,0-.8-.07-1.02-.37-.22-.3-.15-.73,0-1.06.91-1.96,1.43-4.17,2.09-6.25.34-1.07.68-2.14,1.07-3.2.69-1.89,1.54-3.72,2.53-5.47.1-.17.24-.37.44-.35.18.02.28.2.36.36,1.07,2.18,2.16,4.39,2.67,6.76.18.84.29,1.71.19,2.57-.09.81-.36,1.58-.66,2.33-.49,1.25-1.11,2.52-2.2,3.31Z"/>
        <g>
          <path class="cls-1" d="m376.27,241.59c-3.74-12.39-3.38-24.51,2.26-36.49,3.45-7.33,5.96-15.11,9.02-23.02-1.43-.4-2.3-.73-3.19-.87-4.73-.78-8.08-3.44-9.61-8.12-.28-.87-.49-1.76-.72-2.64-.92-3.54-2.26-6.95-3.61-10.35-.51-1.28-1.12-2.68-2.39-3.23-1.68-.73-3.51.4-5.16,1.2-1.93.93-4.35,1.75-4.89,3.83-.18.7-.1,1.43-.15,2.15-.11,1.6-.85,3.18-.56,4.76.35,1.9,2.12,3.23,3.94,3.91,1.81.68,3.78.9,5.56,1.65,6.77,2.83,4.9,11.62,2.13,16.59-3.33,5.97-6.86,11.83-10.22,17.79-2.39,4.24-3.83,8.82-2.26,13.62,3.03,9.26,6.11,18.51,9.21,27.75,2.88,8.59,4.78,18.43,10.36,25.68,1.26,1.63,2.91,3.12,4.94,3.49,1.95.35,4.08-.47,5.24-2.08,2.58-3.6-2.26-11.58-3.47-15.3-2.19-6.75-4.38-13.5-6.43-20.29Z"/>
          <path class="cls-1" d="m421.71,171.85c-3.63,1.73-6.79,4.42-10.35,6.33-5.16,2.76-5.25,6.95-4.58,12.03,1.25,9.37,2.39,18.8,2.77,28.24.42,10.61.66,21.23.87,31.84.1,5.27.55,10.67.31,15.93-.18,3.89-1.21,7.46,2.07,10.56,1.96,1.85,4.85,2.65,7.48,2.08.8-.17,1.59-.48,2.23-1,2.9-2.41,1.39-7.37,1.14-10.52-.39-4.82-.7-9.66-.88-14.49-.86-23.86,2.19-47.21,10.15-69.78,1.19-3.36,1.46-5.93-1.27-8.52-2.89-2.75-6.17-4.48-9.95-2.69Z"/>
          <path class="cls-1" d="m364.7,188.31c2.38-4.91.02-9.98-5.01-10.62-2.89-.37-6.31.33-8.92,1.67-3.45,1.78-6.26,4.77-9.5,7.02-2.96,2.05-4.13,4.65-4.39,8.24-.26,3.48-.87,7.24-2.47,10.27-4.42,8.35-5.07,16.71-3.08,25.92,1.84,8.51,3.35,17.08,4.85,25.66,1,5.75.67,17.66,5.97,21.33,1.95,1.35,4.55,1.73,6.81,1,.44-.14.87-.33,1.22-.63.6-.5.91-1.27,1.11-2.02,1.12-4.23-.5-9.2-1.36-13.34-1.11-5.38-2.19-10.78-3.01-16.22-1.95-12.97-1.58-25.57,6.33-37.15,4.5-6.58,7.94-13.93,11.45-21.14Z"/>
          <path class="cls-1" d="m335.8,162.35c-.45.57.51,4.27.61,5.08.2,1.7.41,3.41.61,5.11.4,3.32.73,6.54.81,9.86,2.78-1.09,4.54-3.98,7.3-5.11,1.21-.5,2.56-.63,3.73-1.2,2.06-1.01,3.28-3.26,3.64-5.52.36-2.26,0-4.57-.38-6.83-.21-1.3-.44-2.64-1.09-3.79-.59-1.05-1.5-1.89-2.29-2.8-2.08-2.38-3.5-5.39-6.04-7.26-3.32-2.45-5.01-.12-7.48,2.15-2.33,2.14-4.49,4.46-6.36,7.01-3.74,5.08-6.15,10.99-6.94,17.26-1.03,8.08-1.79,16.2-3.22,24.2-.85,4.76-2.58,9.23-8.01,11.29-1.87.71-3.61,3.22-4.3,5.27-1.26,3.79-1.7,7.86-2.49,11.88,8.61.15,14.65-5.52,14.94-13.52.05-1.38.34-2.96,1.1-4.05,4.99-7.23,6.46-15.35,6.79-23.92.28-7.27,1.65-14.37,5.6-20.69.84-1.34,1.95-2.51,3.45-4.42Z"/>
          <path class="cls-1" d="m416.49,132.94c2.05,1.52,4.95,1.07,7.33.16,1.12-.43,2.22-.95,3.13-1.73,2.7-2.31,3.19-6.44,2.12-9.82-.62-1.96-12.95-18.92-12.57-19.32-2.8,3.01-5.34,6-8.15,8.7-4.65,4.47,3.47,15.57,6.19,19.72.56.85,1.15,1.7,1.96,2.3Z"/>
          <path class="cls-1" d="m396.46,160.41c.04-.36.1-.73.16-1.09.21-1.18.53-2.36.51-3.56-.03-1.78-.83-3.49-1.97-4.87s-2.59-2.45-4.1-3.41c-1.6-1.02-3.36-1.96-5.25-2.03-1.09-.04-2.18.2-3.23.49-3.28.88-6.73,2.01-9.51,3.99-2.38,1.69-1.5,3.51.13,5.49,3.58,4.34,6.18,9.02,6.96,14.73.28,2.03,2.32,4.02,3.58,5.52.34.4.7.81,1.17,1.03.34.16.73.21,1.1.27,1.38.19,2.76.38,4.15.57,2.28.31,4.63.62,6.87.07.33-.08.68-.2.88-.47.19-.25.22-.59.22-.91,0-.9-.12-1.81-.38-2.67-.28-.92-.7-1.79-.98-2.72-.5-1.66-.52-3.42-.52-5.15,0-1.76,0-3.53.21-5.28Z"/>
          <path class="cls-1" d="m447.61,92.78c-.94-1.12-2.35-1.6-3.76-2.08-3.74-1.27-1.3,10.72-1.3,12.02-.23,3.19,2.49,3.61,4.54,1.67,1.87-1.77,2.16-4.71,1.91-7.13-.16-1.58-.36-3.26-1.38-4.48Z"/>
          <path class="cls-1" d="m427.76,94.48c.52.1,1.05,0,1.56-.09,2.16-.4,4.33-.79,6.49-1.19,4.13-.76,4.15-4.44,2.87-8.21-1.11-3.27-3.18-6.61-4.38-8.17-.18-.23-.38-.48-.65-.59-.32-.14-.68-.09-1.02,0-2.78.76-3.99,4.23-5.19,6.54-1.2,2.33-3.03,4.3-3.93,6.8-1.27,3.54,1.18,4.34,4.25,4.91Z"/>
          <path class="cls-1" d="m498.6,38.24c-3.72-5.59-7.26-11.32-11.4-16.58-4.29-5.45-8.4-10.72-6.93-18.25.02-.12.02-.31-.06-.39-1.08-1.09-2.17-2.99-3.29-3.01-1.12-.02-2.84,1.64-3.29,2.92-.62,1.78-.21,3.9-.45,5.85-.07.6-.8,1.13-1.22,1.7-.5-.6-1.34-1.14-1.44-1.8-.27-1.94.24-4.14-.51-5.81-.58-1.3-2.5-2.39-4.01-2.7-.62-.13-2.12,1.94-2.48,3.22-.66,2.38.98,5.62-1.02,7.53-1.23,1.19-3.97,2.84-5.56,3.61-2.57,1.25-4.43-.23-6.19-2.01-.83-.84-1.71-1.63-2.62-2.39-1.13-.93-2.37-1.81-3.79-2.13-1.43-.32-3.1.05-3.96,1.24-.81,1.12-.73,2.65-.4,3.99.26,1.06.66,2.12,1.38,2.93,1.02,1.16,2.57,1.69,4.06,2.09,1.49.4,3.05.75,4.3,1.65,4.08,2.94-.26,8.23-1.84,11.37-2.19,4.35-4.29,8.76-5.68,13.43-.18.61-.34,1.22-.5,1.83-.62,2.46-1.66,4.27-.67,6.83,1.22,3.19,3.27,5.99,4.17,9.34.52,1.92.64,3.99,0,5.87-.74,2.2-2.45,3.94-4.26,5.38-.49.39-1.01.77-1.36,1.29-.35.52-.52,1.21-.25,1.78.24.5.76.8,1.3.9.74.13,1.46-.04,2.14-.31,2.01-.8,4.29-1.04,6.25-1.88,1.74-.74,3.66-2.12,5.17-3.28.61-.48,1.24-.96,1.69-1.6.66-.93.51-2.05.73-3.11.3-1.45.9-2.89,1.37-4.31.97-2.97,1.93-5.95,2.41-9.04.65-4.19,2.21-8.08,3.87-12.01.58-1.36,2.9-3.18,4.01-2.93,6.67,1.51,13.97,1.53,19.03,7.38,2.84,3.29,7.37,3.64,10.64,1.18,3.1-2.33,3.38-5.71.66-9.78Zm-23.16-12.41c-.85.72-2.19.8-3.08.12-.26-.2-.47-.45-.66-.72-.36-.53-.62-1.15-.6-1.8.02-.64.36-1.29.93-1.58.19-.09.39-.14.59-.18,1.05-.2,3.09,0,3.66,1.07.48.92-.13,2.48-.85,3.09Z"/>
          <path class="cls-1" d="m422.91,161.62c-1.97-7.65-4.73-15.12-6.47-22.8-2.7,1.38-5.47,2.82-7.46,5.1-.77.88-1.41,1.87-2.23,2.69-1.06,1.06-2.4,1.84-3.33,3.02-.67.85-1.09,1.88-1.43,2.9-1.06,3.18-1.51,6.56-1.31,9.9.05.81.14,1.63.36,2.42.16.55.39,1.09.51,1.65.24,1.12.04,2.28.17,3.42.13,1.2,1.21,4.19,2.71,4.38.73.09,2.12-1.02,2.76-1.37.95-.51,1.9-1.02,2.86-1.53,3.69-1.97,7.38-3.96,10.99-6.09,1.04-.62,2.16-2.66,1.89-3.7Z"/>
          <path class="cls-1" d="m423.4,140.99c-.01,1.53,1.37,3.84,1.72,5.1.66,2.37,1.14,4.78,1.68,7.18.91,4.11,2.67,8.11,3.09,12.31.06.66.1,1.34.44,1.91.25.41.63.72,1.02,1.02,1.25.96,2.56,1.83,3.88,2.71.12.08.25.16.39.18.23.03.44-.11.62-.25,1.95-1.54,3.15-4.98,3.95-7.25,1.07-3.05,1.67-6.25,1.91-9.47.27-3.52.14-7.06-.14-10.57-.14-1.81-.34-3.61-.53-5.41-.06-.56.23-3.12-.32-3.34-.17-.07-.37-.03-.55.02-2.77.67-5.55,1.35-8.32,2.02-1.21.29-2.41.59-3.64.77-.98.15-1.98.23-2.92.56s-1.82.97-2.18,1.89c-.07.19-.1.4-.11.62Z"/>
          <path class="cls-1" d="m408.19,130.52c-1.92-3.57-4.12-7.01-6.51-10.29-.54-.74-2.85-1.19-3.48-.69-2.69,2.14-8.59,2.18-7.82,6.26,1.05,5.58.66,10.56-1.35,15.85,3.45,2.01,6.71,3.91,10.28,5.99,2.67-2.85,5.14-5.39,7.5-8.02,2.43-2.7,3.12-5.89,1.39-9.1Z"/>
          <path class="cls-1" d="m360.29,153.14c.93-.48,2.24-.49,2.88-1.17,1.19-1.28,2.45-2.78,2.9-4.4.63-2.26-5.28-10.37-7.58-10.9-.46-.11-1.07-.01-1.5.22-4.14,2.22-8.26,4.49-12.9,7.03,2.41,2.65,4.45,4.4,5.87,6.56,2.73,4.16,6.06,4.86,10.32,2.67Z"/>
          <path class="cls-1" d="m365.33,136.03c.82,1.4,1.9,2.82,2.53,4.31.54,1.27.71,2.53,1.58,3.69.19.26.41.51.69.66.32.17.7.19,1.06.19,2.37-.03,5.01-.9,7.32-1.47,1.47-.36,2.99-.74,4.2-1.65,1.38-1.05,2.21-2.69,2.6-4.39.39-1.69.37-3.44.35-5.18,0-.84-.02-1.7-.35-2.47-.51-1.22-2.63-2.26-3.93-1.86-3.08.95-6.15,1.95-9.21,2.97-1.59.53-3.18,1.06-4.77,1.59-.64.21-1.49.3-2.07.61-.47.25-.78.65-.68,1.39.08.58.38,1.11.68,1.62Z"/>
        </g>
      </g>
    </g>
  </g>
</svg>