<?xml version="1.0" encoding="UTF-8"?>
<svg id="Capa_2" data-name="Capa 2" xmlns="http://www.w3.org/2000/svg" viewBox="0 0 512.75 728.72">
  <defs>
    <style>
      .cls-1 {
        fill: #846f61;
        stroke-width: 0px;
      }
    </style>
  </defs>
  <g id="Capa_1-2" data-name="Capa 1">
    <g>
      <path class="cls-1" d="m339.74,290.61c-1.33.3-2.7.62-3.76,1.46-1.4,1.11-2.05,2.95-2.19,4.73-.4,5.12,2.68,9.79,4.21,14.69,2.08,6.64,1.23,14.14-2.29,20.15-.96,1.63-2.11,3.18-2.71,4.98-.6,1.8-.52,3.98.78,5.35,1.28,1.35,3.32,1.56,5.18,1.6,4.72.08,9.45-.5,14.02-1.71,2.04-.54,4.13-1.25,5.67-2.7,1.76-1.65,2.59-4.05,3.23-6.37,3.59-12.99,4.36-26.56,7.87-39.6,1.92-7.15.38-8.67-7.09-7.31-7.67,1.39-15.31,3.03-22.92,4.73Z"/>
      <path class="cls-1" d="m337.26,252.59c.28-.11.56-.21.85-.31,3.33-1.15,6.86-1.54,10.37-1.92,1.71-.19,3.58-.34,5.02.59,1.96,1.26,2.33,3.94,2.36,6.27.03,2.23-.09,4.46-.35,6.68-.27,2.35-.73,4.76-2.06,6.72-1.84,2.73-5.03,4.15-8.04,5.49-5.26,2.35-10.55,4.92-14.74,8.88-1.25,1.18-2.56,2.56-4.28,2.7-1.65.13-3.14-.94-4.36-2.06-2.65-2.42-4.2-5.19-6.1-8.11-3.34-5.13-6.96-10.41-10.71-15.26-1.89-2.44-2.49-5.32-.14-7.91,1.68-1.85,4.5-2.54,6.87-1.75.88.29,1.68.76,2.51,1.16,2.12,1.03,4.41,1.63,6.69,2.23,2.74.72,5.33,1.1,8.02.14,2.77-.99,5.33-2.48,8.07-3.54Z"/>
      <path class="cls-1" d="m370.36,232.45c-3.33-1.03-6.75-2.02-9.6-4.02-2.85-2-5.09-5.25-4.88-8.73.23-3.73,3.2-6.8,6.54-8.48,3.34-1.68,7.1-2.3,10.68-3.37,4.05-1.21,7.92-3.02,11.45-5.35,1.63-1.08,3.29-2.3,5.23-2.5.91,3.74-.66,7.59-2.01,11.2-2.18,5.86-3.83,11.91-4.93,18.07-.36,2.01-.73,7.18-3.5,7.08-1.13-.04-2.96-1.66-4.03-2.13-1.61-.71-3.29-1.25-4.96-1.77Z"/>
      <path class="cls-1" d="m354.5,187.36c-2.18,1.58-4.72,2.16-7.33,2.51-2.32.31-4.57,1.1-6.96,1.08-.98,0-2.09-.18-2.67-.98-.57-.79-.39-1.89.02-2.77,2.36-5.12,3.73-10.87,5.45-16.3.89-2.79,1.77-5.59,2.79-8.34,1.81-4.92,4.02-9.69,6.6-14.26.26-.45.63-.97,1.15-.92.46.05.74.51.94.93,2.8,5.68,5.63,11.44,6.96,17.64.47,2.2.75,4.46.5,6.7-.24,2.1-.94,4.12-1.71,6.09-1.28,3.26-2.9,6.57-5.74,8.62Z"/>
      <g>
        <path class="cls-1" d="m188.75,630.22c-9.76-32.33-8.82-63.95,5.9-95.2,9.01-19.13,15.55-39.42,23.54-60.06-3.74-1.04-6-1.89-8.33-2.28-12.33-2.04-21.07-8.97-25.08-21.19-.74-2.26-1.27-4.58-1.87-6.89-2.4-9.23-5.91-18.13-9.41-27-1.32-3.34-2.93-7-6.23-8.43-4.38-1.89-9.16,1.05-13.45,3.13-5.04,2.44-11.35,4.57-12.75,9.99-.47,1.82-.27,3.74-.39,5.61-.28,4.18-2.22,8.3-1.46,12.42.92,4.97,5.54,8.44,10.27,10.21,4.73,1.77,9.85,2.35,14.51,4.3,17.65,7.37,12.79,30.31,5.57,43.28-8.68,15.58-17.9,30.86-26.67,46.4-6.24,11.07-9.99,23.01-5.9,35.53,7.91,24.16,15.93,48.29,24.02,72.4,7.52,22.4,12.47,48.07,27.01,66.98,3.28,4.26,7.59,8.13,12.88,9.1,5.09.92,10.65-1.23,13.66-5.44,6.73-9.39-5.89-30.2-9.05-39.91-5.72-17.6-11.42-35.22-16.77-52.93Z"/>
        <path class="cls-1" d="m307.3,448.31c-9.47,4.5-17.71,11.53-27,16.5-13.45,7.21-13.71,18.14-11.94,31.4,3.27,24.45,6.24,49.04,7.22,73.66,1.1,27.68,1.72,55.37,2.26,83.06.27,13.75,1.42,27.82.8,41.56-.46,10.14-3.16,19.46,5.41,27.54,5.11,4.82,12.65,6.92,19.52,5.43,2.1-.45,4.16-1.24,5.81-2.61,7.57-6.29,3.63-19.22,2.97-27.44-1.01-12.58-1.84-25.19-2.29-37.8-2.25-62.26,5.71-123.16,26.49-182.04,3.09-8.77,3.8-15.47-3.3-22.24-7.53-7.17-16.1-11.7-25.95-7.02Z"/>
        <path class="cls-1" d="m158.58,491.25c6.22-12.8.05-26.05-13.06-27.7-7.54-.95-16.47.87-23.26,4.37-9.01,4.64-16.33,12.44-24.78,18.3-7.71,5.35-10.77,12.12-11.46,21.51-.67,9.09-2.27,18.89-6.45,26.79-11.53,21.79-13.22,43.6-8.02,67.61,4.8,22.2,8.74,44.56,12.64,66.93,2.62,15.01,1.73,46.07,15.58,55.65,5.1,3.53,11.87,4.52,17.77,2.6,1.14-.37,2.27-.86,3.19-1.63,1.56-1.31,2.37-3.3,2.89-5.27,2.93-11.03-1.31-23.99-3.55-34.8-2.9-14.05-5.72-28.12-7.85-42.31-5.07-33.84-4.13-66.71,16.51-96.91,11.74-17.18,20.72-36.34,29.86-55.14Z"/>
        <path class="cls-1" d="m83.18,423.51c-1.18,1.5,1.34,11.13,1.59,13.26.53,4.45,1.07,8.89,1.6,13.34,1.04,8.66,1.91,17.06,2.12,25.73,7.25-2.84,11.83-10.37,19.04-13.32,3.16-1.29,6.67-1.63,9.74-3.13,5.37-2.63,8.56-8.5,9.5-14.4.94-5.9-.02-11.93-.99-17.83-.56-3.4-1.15-6.88-2.83-9.88-1.54-2.75-3.9-4.92-5.98-7.3-5.43-6.21-9.12-14.05-15.76-18.94-8.67-6.38-13.06-.31-19.5,5.61-6.07,5.57-11.7,11.63-16.59,18.28-9.75,13.26-16.04,28.67-18.11,45.01-2.67,21.07-4.67,42.25-8.39,63.14-2.21,12.43-6.73,24.09-20.91,29.45-4.88,1.85-9.43,8.39-11.21,13.76-3.29,9.89-4.43,20.51-6.49,30.98,22.47.4,38.21-14.4,38.98-35.28.13-3.59.89-7.73,2.86-10.58,13.03-18.85,16.86-40.04,17.72-62.39.74-18.97,4.29-37.49,14.61-53.98,2.19-3.5,5.08-6.55,9-11.52Z"/>
        <path class="cls-1" d="m293.67,346.79c5.36,3.96,12.91,2.79,19.13.41,2.92-1.12,5.78-2.49,8.16-4.52,7.04-6.02,8.31-16.79,5.52-25.62-1.61-5.1-33.78-49.35-32.8-50.41-7.31,7.86-13.94,15.64-21.27,22.68-12.13,11.65,9.04,40.62,16.14,51.44,1.45,2.21,2.99,4.44,5.12,6.01Z"/>
        <path class="cls-1" d="m241.42,418.47c.11-.95.25-1.89.42-2.84.54-3.08,1.39-6.15,1.33-9.28-.08-4.65-2.17-9.11-5.13-12.7-2.96-3.59-6.76-6.39-10.69-8.9-4.18-2.67-8.75-5.1-13.71-5.3-2.85-.11-5.67.53-8.43,1.27-8.56,2.3-17.56,5.24-24.82,10.41-6.2,4.42-3.92,9.14.34,14.31,9.34,11.32,16.13,23.52,18.16,38.43.72,5.29,6.04,10.48,9.33,14.39.88,1.05,1.82,2.11,3.06,2.69.9.42,1.9.56,2.88.69,3.61.49,7.21.99,10.82,1.48,5.95.81,12.08,1.62,17.91.18.86-.21,1.77-.52,2.3-1.22.5-.66.57-1.54.58-2.37.02-2.35-.31-4.71-.99-6.97-.72-2.41-1.83-4.68-2.56-7.09-1.31-4.32-1.35-8.91-1.36-13.42-.01-4.6,0-9.22.55-13.78Z"/>
        <path class="cls-1" d="m374.87,242.03c-2.45-2.93-6.12-4.17-9.82-5.43-9.74-3.31-3.4,27.97-3.4,31.36-.6,8.32,6.49,9.43,11.84,4.35,4.87-4.62,5.62-12.28,4.98-18.59-.42-4.12-.94-8.52-3.6-11.69Z"/>
        <path class="cls-1" d="m323.08,246.47c1.35.25,2.73,0,4.07-.24,5.65-1.03,11.29-2.07,16.94-3.1,10.78-1.98,10.82-11.58,7.48-21.41-2.89-8.52-8.3-17.23-11.44-21.31-.47-.61-.98-1.24-1.69-1.55-.83-.36-1.79-.23-2.66,0-7.25,1.98-10.42,11.03-13.54,17.07-3.14,6.07-7.91,11.23-10.25,17.74-3.33,9.24,3.09,11.32,11.08,12.81Z"/>
        <path class="cls-1" d="m507.88,99.74c-9.7-14.57-18.94-29.53-29.73-43.26-11.19-14.23-21.92-27.97-18.09-47.61.06-.32.05-.81-.15-1.01C457.09,5.02,454.25.06,451.34,0c-2.92-.06-7.41,4.28-8.58,7.62-1.63,4.65-.56,10.18-1.16,15.27-.19,1.58-2.07,2.96-3.18,4.43-1.3-1.55-3.51-2.98-3.75-4.69-.72-5.06.62-10.8-1.33-15.16-1.52-3.4-6.53-6.25-10.46-7.04-1.63-.33-5.53,5.06-6.47,8.39-1.72,6.2,2.55,14.65-2.66,19.65-3.2,3.09-10.36,7.41-14.5,9.41-6.71,3.25-11.55-.61-16.16-5.24-2.17-2.18-4.46-4.26-6.84-6.22-2.95-2.43-6.17-4.73-9.9-5.56-3.74-.84-8.09.13-10.34,3.23-2.11,2.92-1.89,6.91-1.06,10.42.67,2.77,1.71,5.53,3.6,7.65,2.67,3.02,6.7,4.4,10.59,5.46,3.88,1.06,7.95,1.95,11.22,4.31,10.64,7.67-.68,21.47-4.79,29.65-5.7,11.34-11.18,22.86-14.81,35.05-.46,1.59-.9,3.18-1.31,4.78-1.61,6.42-4.32,11.14-1.76,17.82,3.19,8.33,8.53,15.64,10.87,24.36,1.35,5.01,1.66,10.42,0,15.32-1.94,5.74-6.38,10.28-11.12,14.02-1.29,1.02-2.63,2.01-3.55,3.36-.92,1.36-1.35,3.17-.64,4.65.62,1.3,1.99,2.09,3.4,2.34,1.93.34,3.81-.1,5.59-.81,5.25-2.1,11.18-2.72,16.32-4.9,4.55-1.94,9.55-5.53,13.48-8.56,1.6-1.25,3.24-2.51,4.42-4.17,1.71-2.44,1.33-5.35,1.92-8.12.79-3.78,2.35-7.55,3.57-11.23,2.52-7.74,5.03-15.52,6.28-23.58,1.7-10.94,5.76-21.07,10.09-31.32,1.5-3.55,7.57-8.3,10.46-7.64,17.4,3.93,36.44,4,49.64,19.26,7.41,8.58,19.23,9.5,27.74,3.07,8.08-6.09,8.82-14.88,1.72-25.52Zm-60.43-32.38c-2.21,1.88-5.73,2.07-8.03.3-.67-.51-1.23-1.16-1.71-1.87-.95-1.38-1.61-3.01-1.56-4.69.06-1.67.93-3.37,2.44-4.12.49-.24,1.02-.38,1.54-.47,2.74-.51,8.06-.02,9.54,2.8,1.26,2.4-.33,6.48-2.21,8.06Z"/>
        <path class="cls-1" d="m310.43,421.62c-5.14-19.95-12.35-39.45-16.87-59.49-7.04,3.61-14.26,7.35-19.47,13.3-2.01,2.29-3.68,4.87-5.83,7.03-2.76,2.77-6.27,4.8-8.68,7.88-1.75,2.23-2.84,4.89-3.74,7.58-2.78,8.29-3.95,17.11-3.43,25.83.13,2.13.35,4.26.95,6.3.42,1.45,1.01,2.84,1.33,4.31.62,2.91.11,5.95.43,8.91.35,3.14,3.16,10.92,7.06,11.43,1.91.25,5.52-2.66,7.21-3.56,2.48-1.33,4.97-2.65,7.45-3.98,9.64-5.15,19.26-10.33,28.67-15.89,2.72-1.61,5.63-6.95,4.92-9.65Z"/>
        <path class="cls-1" d="m311.7,367.79c-.03,3.98,3.57,10.02,4.5,13.31,1.73,6.17,2.98,12.47,4.37,18.72,2.39,10.71,6.98,21.15,8.06,32.1.17,1.71.26,3.5,1.14,4.98.64,1.08,1.65,1.89,2.65,2.65,3.27,2.5,6.69,4.78,10.11,7.06.31.21.64.42,1.01.47.59.07,1.14-.28,1.61-.65,5.08-4.01,8.22-12.99,10.31-18.91,2.8-7.96,4.35-16.31,4.99-24.71.7-9.18.37-18.4-.37-27.57-.38-4.71-.88-9.41-1.37-14.1-.15-1.45.61-8.13-.82-8.72-.45-.18-.95-.07-1.42.04-7.24,1.76-14.47,3.52-21.71,5.28-3.15.76-6.3,1.53-9.5,2.01-2.56.39-5.17.6-7.61,1.47-2.44.87-4.74,2.53-5.68,4.94-.19.49-.27,1.03-.28,1.63Z"/>
        <path class="cls-1" d="m272.02,340.48c-5.01-9.31-10.76-18.3-16.98-26.84-1.41-1.93-7.44-3.12-9.09-1.81-7.01,5.58-22.4,5.68-20.41,16.34,2.73,14.54,1.72,27.56-3.52,41.34,9.01,5.25,17.5,10.2,26.81,15.63,6.97-7.44,13.4-14.06,19.56-20.91,6.33-7.05,8.15-15.35,3.63-23.75Z"/>
        <path class="cls-1" d="m147.06,399.49c2.42-1.24,5.84-1.27,7.51-3.06,3.11-3.34,6.4-7.25,7.57-11.49,1.63-5.9-13.76-27.05-19.78-28.44-1.21-.28-2.8-.03-3.9.56-10.81,5.8-21.56,11.72-33.65,18.33,6.29,6.92,11.62,11.49,15.32,17.12,7.13,10.84,15.82,12.68,26.93,6.97Z"/>
        <path class="cls-1" d="m160.22,354.85c2.14,3.65,4.95,7.35,6.61,11.24,1.42,3.31,1.86,6.61,4.11,9.63.5.67,1.06,1.33,1.81,1.72.84.44,1.82.51,2.76.5,6.2-.09,13.06-2.35,19.09-3.82,3.84-.94,7.81-1.93,10.96-4.31,3.61-2.73,5.77-7.03,6.78-11.44,1.01-4.41.97-8.99.92-13.51-.02-2.18-.06-4.43-.91-6.44-1.34-3.18-6.85-5.9-10.26-4.86-8.04,2.47-16.04,5.09-24.03,7.74-4.15,1.38-8.3,2.76-12.45,4.14-1.68.56-3.88.77-5.41,1.59-1.23.66-2.03,1.7-1.77,3.63.21,1.52,1,2.89,1.78,4.21Z"/>
      </g>
    </g>
  </g>
</svg>