<?xml version="1.0" encoding="UTF-8"?>
<svg id="Capa_2" data-name="Capa 2" xmlns="http://www.w3.org/2000/svg" viewBox="0 0 644.13 855.81">
  <defs>
    <style>
      .cls-1 {
        fill: #a5af8b;
        stroke-width: 0px;
      }
    </style>
  </defs>
  <g id="Capa_1-2" data-name="Capa 1">
    <g>
      <path class="cls-1" d="m565.57,315.05c-27.72,35.35-60.77,66.09-97.91,91.35-17.97,12.22-36.91,22.4-55.88,32.91-8.54,4.73-17.31,9.81-26.6,12.94,1.93-.65-.88.21-1.03.25-1.12.28-2.22.61-3.34.89-.47.11-3.12.41-.65.12-1.03.12-2.11.28-3.15.28,2.21,0-1.79-.56-2.53-.76-2.65-.74-5.2-1.81-7.71-2.9-10.87-4.71-21.44-10.2-32.72-13.89-5.6-1.83-11.26-2.83-17.05-3.86-4.05-.72-5.04-1.2-6.72-4.95-9.91-22.18-17.41-45.36-24.56-68.54-7.06-22.9-14.08-45.77-21.85-68.45-7.93-23.13-15.08-46.67-18.76-70.9-6.1-40.22.38-79.87,21.91-114.58,19.15-30.88,48.25-55.35,80.56-69.54,16.65-7.31,34.77-11.93,53.21-13.84s38.36-1.35,57.59,2.12c37.33,6.73,73.83,23.34,101.22,49.91s45.89,62.06,51.47,100.2c5.89,40.34-5.16,79.1-26.22,113.48-5.89,9.61-12.35,18.86-19.26,27.77-4.09,5.28-3.52,11.12,3.54,13.22,6.57,1.96,17.6-.17,22.05-5.91,28.42-36.63,51.79-78.41,52.91-125.86,1-41.97-12.86-83.31-38.47-116.55C551.28,9.42,450.24-14.37,366.53,8.28c-81.4,22.02-153.05,93.18-155.19,180.71-1.3,52.85,19.57,101.38,34.84,150.93,7.61,24.71,14.8,49.58,23.91,73.8,2.13,5.67,4.37,11.29,6.74,16.86,2.43,5.69,4.52,12.13,9.58,16.01s10.55,4.78,16.4,5.73,11.3,2.44,16.79,4.46c11.4,4.2,22.02,10.32,33.47,14.42,11.72,4.2,24.29,3.46,36.1,0,20.88-6.12,40.16-18.23,59.08-28.73,44.34-24.61,85.19-55.57,119.71-92.82,8.12-8.77,15.85-17.88,23.22-27.28,4.13-5.26,3.5-11.12-3.54-13.22-6.6-1.97-17.56.19-22.05,5.91Z"/>
      <path class="cls-1" d="m290.6,431.85c-20.45,8.44-39.8,19.23-57.95,31.87-9.37,6.53-5.17,17.24,5.06,18.9,11.36,1.85,22.83,2.6,34.34,2.45,4.68-.06,9.36-.33,14.03-.78,1.55-.15,3.11-.33,4.65-.52-3.99-.07-6.49-1.45-7.49-4.15-.32.57-.25,3.26-.23,4.37.22,10.3,7.58,16.13,17.46,17.26,5.23.6,10.76-.31,15.72-1.95,2.4-.8,4.74-1.73,7-2.86,1.72-.86,4.9-.88-.76-1.39-4.75-.42-3.71-1.49-3.68.41.02,1.3.72,2.94,1.02,4.19.86,3.57,1.98,7.22,4.34,10.13,7.03,8.63,20.11,8.11,29.39,3.93,1.28-.58,2.45-1.25,3.66-1.96,1.57-.93,3.13-1.89,4.65-2.89,1.55-.99,1.65-1.07.29-.25l1.26-.68c-2.61,1.04-5.35,1.16-8.24.38-1.26.56-1.85-2.57-.59.2,2.91,6.4,9.01,12.8,15.7,14.93,5.27,1.68,10.95,1.19,15.92-1.25,3.65-1.79,8.94-5.89,8.84-10.56-.35-17.37-2.92-35.8-9.9-51.83-3.14-7.2-11.44-8.67-18.52-6.77-5.27,1.41-15.79,7.94-12.66,15.12,6.14,14.09,9.14,30.39,9.45,45.72,8.26-3.94,16.51-7.87,24.77-11.81-1.51-.48-1.6-.51-.27-.08.79.73.68.53-.32-.61-.47-1.15-1.57-2.33-2.25-3.37-1.98-3.06-4.11-6.14-7.13-8.3-8.39-5.98-19.88-5.12-28.75-.65-2.48,1.25-4.89,2.76-7.17,4.32-2.5,1.72,1.34.27-1.47.9,2.97-.67,11.63-1.7,11.19.87.01-.07-.8-2.96-1.01-3.83-2.16-9-6.15-15.92-15.86-18.18-5.56-1.29-11.29-.74-16.74.85-2.83.82-5.59,2-8.28,3.21-.82.37-1.63.75-2.43,1.15,1.74-.55,1.66-.55-.25,0,1.52-.51,3.07-.45,4.64.18l2.21,1.48c.91-.03.55-1.53.57-2.73.07-4.61-.5-8.5-3.79-11.92-8.02-8.34-21.54-4.12-31.66-3.7-10.41.44-20.7-.43-30.98-2.1,1.69,6.3,3.38,12.6,5.06,18.9,15.98-11.13,33.09-20.24,51.09-27.67,5.93-2.45,11.71-10.25,7.28-16.38-4.77-6.61-14.86-5.13-21.23-2.5h0Z"/>
      <path class="cls-1" d="m335.55,477.33c-21.45-.43-37.33,11.01-52.59,24.78-12.6,11.37-24.18,23.86-34.59,37.26-21.22,27.31-37.64,57.74-48.57,90.56-12.17,36.56-15.56,75.19-25.9,112.21-8.19,29.32-22.52,60.11-48.01,78.23-30.59,21.76-71.54,17.01-106.47,11.67-6.42-.98-15.49,2.4-18.53,8.43-3.24,6.44,2.88,10.12,8.39,10.96,36.15,5.53,73.75,7.79,108.61-5.27,31.96-11.98,55.72-37.81,70.41-68.06,16.12-33.21,21.32-70.01,28.58-105.82,7.13-35.14,18.42-68.34,36.95-99.17,9.61-15.99,20.82-30.9,33.44-44.64,6.3-6.86,12.93-13.44,19.88-19.65,4.24-3.79,11.97-12.21,18.25-12.09,6.67.13,15.23-1.87,18.53-8.43,2.97-5.91-2.6-10.84-8.39-10.96h0Z"/>
    </g>
  </g>
</svg>