<?xml version="1.0" encoding="UTF-8"?>
<svg id="Capa_2" data-name="Capa 2" xmlns="http://www.w3.org/2000/svg" viewBox="0 0 653.31 866.72">
  <defs>
    <style>
      .cls-1 {
        fill: #b6cbdd;
        stroke-width: 0px;
      }
    </style>
  </defs>
  <g id="Capa_1-2" data-name="Capa 1">
    <path class="cls-1" d="m645.76,97.08c-8.53-15.57-21.56-27.08-32.29-40.94-9.07,3.42-18.13,6.83-27.2,10.25,8.46,4.24,17.38,8.93,27.11,8.46,9.13-.44,33.18-7.55,23.27-20.72-3.28-4.36-8.11-7.94-13.36-9.47-2.8-.81-5.83-1.05-8.73-1.22-1.91-.11-6.73.63-8.42-.37-1.95-1.16-2.4-7.76-2.84-10.44-.96-5.94-1.74-11.82-2.42-17.79-1.85-16.14-17.14-17.09-30.19-12.36-5.77,2.09-12.49,5.54-13.88,12.11-1.21,5.73,2.15,10.54,3.41,15.9.65,2.75.89,5.69.5,8.49-.36,2.61-2.2,5.19-2.45,7.65-.44,4.28,10.58-2.39,7.51-3.11-.85-.2-2.05.03-3-.15-2.78-.52-4.91-2.08-7.05-3.86-6.9-5.74-12.19-17.68-21.22-20.06-10.67-2.81-39.34,5.09-33.38,20.97,4.82,12.82,23.98,10.23,27.6,23.22,9.66-2.59,19.32-5.18,28.97-7.76-3.42-5.89-15.82-3.92-21.47-3.47-12.13.98-25.09,3.75-35,11.25-3.58,2.71-7.51,6.54-7.54,11.36-.04,5.12,4.35,7.78,8.84,8.76,13.47,2.92,29.18-4.96,40.81-11.08-7.24-.6-14.48-1.2-21.73-1.8-25.9,28.38-44.76,62.15-58.59,97.85-13.79,35.6-22.32,73.04-37.99,107.95-14.14,31.49-34.54,63.21-67.61,76.95-16.14,6.71-33.29,10.39-50.32,15.34-19.27,5.6-38.37,11.89-57,19.36-41.27,16.54-81.44,38.55-113.44,69.84,5.24-2.26,10.48-4.51,15.72-6.77-30.26,6.45-59.65,21.87-84.1,40.66-12.02,9.24-22.04,19.86-29.67,33.05-7.75,13.42-12.75,28.23-17.04,43.07-5.24,18.14-9.72,36.52-13.55,55.01-1.86,8.98-3.56,18-5.1,27.04-.74,4.32-1.46,8.65-2.1,12.99-.56,3.83-1.69,8.31.36,11.87,4.51,7.81,18.51,4.27,24.95,1.9,9.71-3.56,15.01-9.74,19.62-18.65,7.74-14.93,12.42-31.17,16.39-47.44,4.57-18.75,7.32-39,15.6-56.59,7.87-16.72,22.93-26.38,38.72-34.79-7.62-.06-15.24-.11-22.85-.17-37.48,79.33-35.21,172.96-27.57,258.35,1.83,20.51,4.14,40.98,6.59,61.43,1.23,10.31,2.7,19.7,13.07,24.45,10.95,5.02,22.82,2.71,34.33,1.91,6.33-.44,12.17.84,18.48-.85,4.21-1.13,11.05-3.26,13.11-7.79.69-1.52.72-3.53.93-5.15,1.17-8.91,1.82-17.91,2.55-26.86,2.22-27.42,4.02-54.87,5.86-82.32.77-11.47,1.53-22.95,2.34-34.42.27-3.81.54-7.62.84-11.43.09-1.12.18-2.23.29-3.35-.09.87-.1,1.03,0,.18.36-3.24.77-6.49,1.18-9.73,2.94-23.19,7.15-47.58,20.69-67.23,12.26-17.8,30.61-30.11,49.87-39.26,18.33-8.71,39.35-16.42,59.54-9.56,21.31,7.24,34.97,28.19,44.43,47.42,19.46,39.58,23.57,84.58,24.54,128.06.5,22.08.12,44.17.22,66.26.05,10.98.21,21.97.7,32.95.2,4.53-.54,10.86,2.08,14.76,3.19,4.75,10.24,4.47,15.31,4.62,13.49.4,26.98.81,40.46,1.21,4.96.15,9.8-.67,14.45-2.44,2.19-.83,8.8-3.28,9.15-6.34,3.48-30.92,3.07-61.99,3.54-93.05.24-15.57.68-31.18,2.17-46.69,1.52-15.95,4.71-31.64,7.24-47.45,4.96-31.03,8.74-62.27,10.66-93.65,1.91-31.25.55-62.5,1.8-93.76,2.48-62.35,23.53-122.53,45.36-180.44,11.33-30.06,21.78-60.44,31.21-91.15,4.71-15.35,9.18-30.78,13.4-46.28,3.29-12.09,5.68-24.64,9.68-36.52.73-2.16,1.53-4.36,2.66-6.35.37-.64,1.06-1.45,1.39-2.12,1.99-4-13.65,2.81-13.32,3.06,1.53,1.18,3.69,1.74,5.3,3.08,2.29,1.91,4.26,4.2,6.11,6.53,7.77,9.79,13.04,19.23,25.51,23.7,14.87,5.34,38.67,2.73,48.51-10.81,9.41-12.94,4.12-32.36-2.46-45.26-3.99-7.82-31.83,2.16-28.97,7.76,3.4,6.68,6.02,13.73,6.92,21.21.4,3.34.53,6.76.09,10.1-.44,3.36-2.13,5.92-2.98,9.01-1.15,4.16,13.13-.68,8.51-2.6-1.08-.45-3-.44-4.15-.76-2.83-.79-5.41-2.07-7.82-3.75-4.31-3-7.38-7.13-10.43-11.34-5.65-7.8-11.27-16.41-21.17-18.97-12.17-3.15-29.57,1.63-37.22,11.99-5.96,8.06-7.43,18.64-9.89,28.12-4.02,15.55-8.29,31.04-12.8,46.45-8.8,30.06-18.55,59.84-29.21,89.28-21.2,58.52-45.54,117.84-51.6,180.34-2.92,30.09-1.51,60.25-2.23,90.41-.76,32.05-3.8,64-8.25,95.74-2.46,17.52-5.77,34.9-8.43,52.38-2.52,16.55-3.62,33.3-4.16,50.01-1.14,35.48.37,71.13-3.61,106.47,7.87-2.93,15.73-5.85,23.6-8.78-9.81-.29-19.62-.59-29.43-.88-4.09-.12-8.18-.23-12.26-.37-2.19-.08-3.36.38-4.57-1.1-1.2-1.46-.75-5.7-.85-7.5-.85-15.16-.99-30.36-1-45.54-.02-31.86.67-63.79-2.01-95.57-2.57-30.56-8.31-61.3-21.47-89.2-13.57-28.77-34.21-54.63-67.98-57.64-35.14-3.13-72.15,12.16-101.8,29.82-28.33,16.88-49.25,40.79-57.7,73.07-9.07,34.64-9.32,71.86-11.72,107.41-1.48,21.9-2.96,43.81-4.69,65.69-.6,7.58-1.19,15.16-1.99,22.73-.25,2.39-.49,4.79-.86,7.16-.65,4.14-1.95,3.22,2.26.26,4.58-1.7,9.16-3.41,13.74-5.11,10.9-1.22-3.02-1.03-5.18-.94-3.32.14-6.62.58-9.93.92-5.14.53-10.23,1.02-14.89-1.73-9.51-5.62-8.35-22.88-9.47-32.55-2.77-23.8-5.24-47.65-6.94-71.55-3.64-51.14-4.2-103.14,4.73-153.79,4.81-27.28,12.5-54.05,24.35-79.13,1.68-3.55-4.95-4.04-6.66-4.07-5.4-.09-11.43,1.37-16.2,3.91-13.46,7.17-27.11,14.95-37.73,26.1-11.15,11.72-16.47,26.4-20.38,41.8-3.98,15.66-7.08,31.54-11.47,47.1-2.18,7.71-4.67,15.33-7.74,22.73-1.53,3.69-3.2,7.32-5.04,10.87-.97,1.86-1.96,4.03-3.18,5.74-5.22,7.36-4.01-4.8,13.47-2.21,1.45.43,2.89.86,4.34,1.29-5.64-2.91-1.52-13.96-.71-18.85,1.43-8.66,3.01-17.29,4.74-25.89,3.14-15.64,6.77-31.18,10.88-46.59,7.07-26.5,14.98-55.31,35.23-75.03,15.97-15.55,37.59-27.88,58.32-35.66,4.5-1.69,8.57-2.05,14.88-4.44,7.86-2.98,13.3-10.02,19.62-15.31,10.74-8.98,22.29-17.04,34.23-24.35,23.92-14.63,49.97-25.62,76.44-34.68,26.32-9.01,53.91-14.31,79.84-24.44,26.21-10.25,47.9-26.08,64.54-48.88,16.2-22.18,27.25-47.33,36.32-73.12,10.57-30.04,18.6-60.9,31.17-90.22,12.67-29.54,29.08-57.2,50.8-80.99,3.21-3.51-.64-5.37-3.95-5.69-5.86-.57-12.61,1.17-17.77,3.89-2.56,1.35-5.26,2.3-7.83,3.61-6.28,3.2,5.39-3.7,5.51-.07-.8-.58-1.23-1.37-1.3-2.36-.05-.81.11-1.57.48-2.26.15-2.71,2.7-.8.24-1.29,1.59.32-4.08.37-1.46.23,1.51-.08,3.01-.27,4.52-.36,1.31-.08,2.64-.05,3.95-.15-1.04,0-.9.02.43.08-.91-.08-1.62-.55-2.13-1.41,3.91,6.74,31.07-.25,28.97-7.76-1.97-7.07-7.7-10.66-14.04-13.51-5.14-2.31-13.05-4.78-14.06-11.35-.34-.86-.33-1.69.04-2.48,2.28-6.46-3.68-5.4-17.89,3.18.68.92,1.8,1.7,2.59,2.54,2.12,2.26,4.03,4.72,6.04,7.08,4.03,4.73,8.25,9.36,13.89,12.16,7.57,3.75,16.5,3.51,24.68,2.38,8.7-1.2,19.75-3.39,25.7-10.45,4.2-4.98,5.58-12.35,5.13-18.71-.24-3.39-1.33-6.4-2.48-9.56-.64-1.75-1.49-3.65-1.68-5.53-.43-4.19,2.63-3.87-4.56-1.17-3.77.82-7.54,1.64-11.3,2.47-2.52.19.69,2.99,1.32,5,.66,2.13.79,4.41,1,6.61.49,5.12,1.3,10.12,2.14,15.19,1.36,8.25,2.48,14.59,11.86,15.98,8.3,1.23,17.69-.57,22.85,7.98.79,1.05,1.15,2.22,1.07,3.53,17.74-2.67,23.54-4.42,17.39-5.24-1.31-.56-2.79-.85-4.13-1.39-3.3-1.3-6.62-2.83-9.79-4.42-5.65-2.83-13.16-.99-18.79,1.15-3.1,1.18-11.78,4.74-8.41,9.1,10.1,13.06,22.49,23.8,30.52,38.46,4.28,7.81,31.88-2.45,28.97-7.76Z"/>
  </g>
</svg>