<?xml version="1.0" encoding="UTF-8"?>
<svg id="Capa_2" data-name="Capa 2" xmlns="http://www.w3.org/2000/svg" viewBox="0 0 768.05 824.09">
  <defs>
    <style>
      .cls-1 {
        fill: #d96f26;
        stroke-width: 0px;
      }
    </style>
  </defs>
  <g id="Capa_1-2" data-name="Capa 1">
    <g>
      <path class="cls-1" d="m468.72,394.33c61.99-24.46,122.19-53.59,179.86-87,47.43-27.47,117.06-63.16,119.41-126.14,1.08-28.92-13.93-53.93-41.28-64.75-33.71-13.35-70.43-6.77-103.38,5.62-52.31,19.68-100.98,53.57-139.56,93.77-42.36,44.13-74.52,96.95-92.75,155.44,17.96-3.52,35.93-7.04,53.89-10.55-2.33-60.93-7.32-121.95-19.69-181.74-6.15-29.75-14.13-59.14-24.42-87.73-9.02-25.04-19.65-52.59-40.26-70.52-22.74-19.78-54.94-25.59-83.58-16.61-31.59,9.9-50.11,33.24-60.97,63.5-18.98,52.88-7.64,111.8,12.37,162.59,24.76,62.82,62.44,121.61,102.65,175.56,13.82-8.44,27.65-16.89,41.47-25.33-60.39-8.96-122.17-10.1-182.7-1.61-29.94,4.2-59.75,10.56-88.38,20.33-26.9,9.18-54.15,21.89-74.12,42.69C9.9,459.95-.59,482.44.03,507.8c.57,23.75,13.27,44.77,34.91,55.19,25.3,12.17,55.92,10.04,82.71,4.95,30.21-5.73,60.09-13.42,89.49-22.39,67.2-20.49,131.84-47.99,193.31-81.99-13.95-2.93-27.91-5.85-41.86-8.78-34.39,45.59-65.07,94-89.74,145.55-12.63,26.39-23.95,53.39-33.37,81.09s-16.99,58.43-5.56,86.56c22.86,56.26,90.77,68.94,141.56,43.7,24.93-12.39,45.2-31.36,61.78-53.56,16.91-22.64,24.94-48.29,29.89-75.82,12.59-70,15.64-141.63,10.12-212.5-17.96,4.81-35.92,9.63-53.88,14.44,12.29,55.49,38.26,107.58,75.12,150.86,37.51,44.04,87.06,80.15,147.64,74.5,27.96-2.61,58.34-13.97,77.97-34.68,19.13-20.18,26.26-46.3,21.32-73.59-4.93-27.27-20.51-52.08-37.95-73.11-17.92-21.6-37.69-41.65-58.93-59.99-48.72-42.09-104.82-75.63-165.1-98.24-12.28-4.61-27.16-1.88-38.17,4.98-6.4,3.99-17.11,16.58-4.67,21.25,47.42,17.79,92.57,42.12,132.87,72.85,20.34,15.51,39.57,32.48,57.42,50.81,17.05,17.5,34.6,36.25,46.55,57.72,11.13,20,19.17,44.46,13.57,67.34-2.18,8.91-6.78,17.67-12.79,23.56-4.45,4.36-4.62,4.07-9.05,6.77-6.45,3.92,4.16-1.31-2.94,1.36-3.1,1.18-3.13,1.26-.1.23-1.62.52-3.25.99-4.89,1.42-7.48,2.39,5.09-.25-2.74.59-.21.02-8.58.9-3.41.58-4.92.3-9.28,0-11.81-.37-11.92-1.75-23.02-6.15-33.57-11.85-21.71-11.73-39.86-29.18-56.16-47.49-38.05-42.75-63.93-94.09-76.3-149.92-2.5-11.3-23.03-8.45-30.6-6.42-9.5,2.54-24.21,9-23.29,20.86,4.4,56.55,2.89,113.34-4.64,169.56-3.39,25.34-6.72,51.79-15.87,75.83-7.65,20.09-22.98,38.71-39.34,52.45-7.02,5.9-11.42,8.74-19.15,11.47,5.73-2.03-2.44.45-3.06.57,6.96-1.33-4.44.05,1.01-.22-4.95.24-7.74-.13-13.1-1.72-20.06-5.97-36.15-22.94-42.9-42.48-8.63-25-1.15-50.87,7.04-74.95,8.29-24.38,17.91-48.4,28.99-71.65,24.81-52.1,55.72-100.99,90.44-147.02,5.73-7.59-1.52-13.8-8.64-15.4-11.2-2.51-23.48,1.23-33.22,6.62-45.22,25.01-92.92,46.25-141.99,62.93-20.6,7-47.42,14.86-70.74,20.69-5.47,1.37-10.95,2.68-16.44,3.95-3.3.76-6.59,1.5-9.9,2.23.41-.09-10.07,2.06-4.36.97-11.58,2.21-20.88,3.46-30.28,2.73-38.94-3.01-48.28-50.99-29.24-81.14,11.28-17.86,28.06-26.54,45.55-33.32,16.39-6.35,43.28-12.73,63.06-15.89,55.13-8.81,111.65-8.73,166.93-.52,11.22,1.66,23.51-.56,33.22-6.62,6.25-3.89,13.81-11.27,8.25-18.72-32.55-43.67-62.44-90.06-85.9-139.3-21.24-44.58-38.79-95.45-33.86-145.53,2.16-21.93,7.97-49.03,23.23-66,1.38-1.53,3.01-2.68,4.47-4.11-.69.68-2.55,1.34-3.43,1.29,5.91.32.53-.02-.81-.13,7.95.65-3.11-1.1,4.82.45,9.83,1.92,18.38,7.7,25.32,14.74,17.3,17.54,25.8,41.76,33.77,64.54,9.09,25.97,16.29,52.58,21.99,79.5,12.88,60.86,18.02,123.04,20.39,185.11.39,10.2,21.71,8.19,26.95,7.13,9.9-2,23.59-6.93,26.94-17.69,27.7-88.86,90.49-164.26,171.42-207.38,2.66-1.42.69-.39.13-.1,1.24-.64,2.5-1.25,3.75-1.86,2.51-1.23,5.03-2.42,7.57-3.59,6.55-3.01,13.23-6.05,20.09-8.31,6.15-2.03,17.21-4.33,24.84-3.36,23.09,2.94,39.07,20.44,41.13,43.38,4.69,52.22-53.92,81.33-91.35,103.35-56.08,32.98-114.67,61.27-175.18,85.15-7.03,2.77-22.35,12.84-14.32,21.82,8.01,8.96,26.6,4.23,35.69.64Z"/>
      <path class="cls-1" d="m392.09,372.79c-17.74,2.46-34.54,15.75-37.41,33.42-2.87,17.73,8.04,34.73,20.34,47.81,3.11,3.31,6.4,6.54,10.39,8.7,12.46,6.75,28.76.96,38.19-9.62,9.43-10.57,13.53-24.75,16.98-38.49,1.47-5.84,2.88-11.91,1.83-17.84-3.4-19.26-34.69-26.16-50.32-23.99Z"/>
    </g>
  </g>
</svg>