<?xml version="1.0" encoding="UTF-8"?>
<svg id="Capa_2" data-name="Capa 2" xmlns="http://www.w3.org/2000/svg" viewBox="0 0 790.94 545">
  <defs>
    <style>
      .cls-1 {
        fill: #ffeedc;
        stroke-width: 0px;
      }
    </style>
  </defs>
  <g id="Capa_1-2" data-name="Capa 1">
    <path class="cls-1" d="m787.98,316.41c-4.6-15.27-14.48-29.56-27.11-39.19-9.03-6.89-19.11-10.62-30.1-13.02,21.23-24.22,32.29-55.55,29.53-85.99-1.63-17.99-7.6-36.15-16.8-51.14-10.31-16.78-24.29-29.19-40.44-35.88-19.2-7.96-38.43-6.15-57.04-1.31-1.03-15.13-3.33-30.93-11.33-44.25-7.98-13.28-22.13-21.42-39.85-22.92-27.6-2.34-55,6.99-76.04,25.04-1.31-2.81-2.7-5.69-4.45-8.4-5.79-8.97-12.97-16.42-21.34-22.14C475.68,5.36,453.98-.43,428.52.02c-44.42.79-88.2,20.62-120.1,54.41-17.09,18.1-29.31,39.13-35.32,60.8-.08.31-.16.61-.22.9-.12.37-.24.75-.33,1.13-1.13,4.42-1.98,8.77-2.55,13.08-5.79-.53-11.65-.18-17.26,1.11-14.04,3.23-25.13,11.88-31.24,24.34-3.05,6.23-3.28,12.39-2.17,18.34-6.8-.3-13.53.33-19.3,1.06-30.31,3.83-51.28,16.19-62.33,36.75-8.88,16.51-8.4,34.07-6.99,47.51.51,4.91,1.04,9.32,1.73,13.56-35.84,4.83-72.22,23.53-98.15,51.56C9.34,351.55-3.21,391.05.71,430.23c4.15,41.5,25.93,76.46,59.75,95.93,21.62,12.44,47.89,18.85,75.04,18.85,15.79,0,31.89-2.17,47.54-6.58,41.54-11.7,81.13-36.86,120.56-76.71,35.68,24.34,70.41,37.2,103.38,38.24,1.45.05,2.89.07,4.33.07,38.99,0,75.97-16.64,99.6-45.03,7.59-9.12,13.3-19.25,16.9-29.8,18.97,9.03,40.08,15.42,63.05,19.06,35.55,5.64,68.67,5.08,98.44-1.66,23.86-5.4,57.15-18.05,80.22-47.6,19.04-24.39,25.94-53.77,18.46-78.6Zm-41.36,64.2c-28.21,43.85-89.2,45.74-135.39,39.61-30.41-4.04-56.95-13.19-78.97-27.22l-.02-2.28-2.15.87c-.44-.29-.88-.58-1.32-.88-5.62-3.8-15-2.43-20.98.78-5.35,2.88-8.39,7.32-8.34,12.19,0,.13,0,.27,0,.4l-4.23,1.72,4.08,2.75c-2.17,31.4-28.08,58.88-62.18,65.04-32.95,5.95-70.54-5.85-111.85-35.06l3.25-3.57-6.12,1.52c-1.73-1.25-3.47-2.54-5.22-3.85-8.67-6.54-20.92-.57-26.46,5.52-2.5,2.75-5,5.43-7.47,8.03l-.66.16.29.22c-30.15,31.55-58.34,51.83-88.07,63.44-32.86,12.83-69.16,12.8-99.62-.09-29.81-12.62-51.38-38.62-59.16-71.35-7.24-30.43-2.23-63.99,13.4-89.77,18.45-30.43,56.81-51.75,91.65-51.75,2.2,0,4.4.08,6.56.26l.27.07.04-.04c.08,0,.15.01.23.02,6.85.59,14.28-2.16,18.91-7.03,2-2.1,5.01-6.9,3.64-11.59-.31-1.06-.82-2.01-1.5-2.83l2.69-2.71-5.06-.44c-.54-1.75-.94-3.63-1.35-5.7-1.15-5.76-1.79-11.64-2.3-17.15-.98-10.48-1.25-23.99,5.49-35.56,7.79-13.38,26.92-16.28,42.21-14.53,4.01.46,7.97,2.22,12.17,4.09,2.48,1.1,5.13,2.28,7.95,3.2l1.53,4.93,2.42-3.88c5.66,1.15,11.87.72,18.46-3.73,6.79-4.58,9.4-9.6,7.75-14.9-1.32-4.27-3.03-8.38-4.68-12.35-2.04-4.91-3.96-9.55-5.18-14.37-.02-.08-.04-.17-.07-.25h0c.12-1.54.3-2.35.74-3.37.9-2.08,2.31-3.73,3.16-4.13,3.29-1.52,9.63,1.01,15.11,4.67l.21,1.86,1.54-.63c.32.24.64.48.95.72,5.3,4.14,15.29,2.79,21.88-.89,5.38-3.01,8.18-7.48,7.7-12.27l3.57-1.46-3.97-3.1c-.6-9.53.32-19.07,2.79-29.01,12.02-41.43,46.37-75,87.88-85.72,25.62-6.62,50.06-4.86,68.8,4.95,8.98,4.7,16.82,11.71,22.07,19.75,1.77,2.72,3.22,5.75,4.75,8.97,2.01,4.23,4.07,8.54,7,12.4l-2.18,3.1,3.94-.97c1.3,1.46,2.77,2.82,4.45,4.07,3.15,2.33,7.47,3.2,12.18,2.45,5.95-.96,11.7-4.28,14.65-8.47,1.81-2.57,3.71-4.97,5.7-7.2l2.14-.53-.99-.73c13.75-14.72,31.4-21.52,49.67-18.81,21.85,3.23,26.67,25.72,28.43,52.14l-3.42,1.16,3.55.87c.14,2.23.25,4.5.36,6.77l.03.71c.15,3.24,1.6,5.95,4.08,7.64,4.99,3.4,12.45,1.62,16.46.26l.11-.04c10.53-3.58,21.4-7.28,32.14-6.84,8.77.36,17.9,3.6,25.72,9.11,17.56,12.39,26.45,31.08,30.81,44.58,11.92,36.9-.63,77.84-31.22,101.87-4.21,3.31-6.16,8.19-4.97,12.46.51,1.83,2.42,6.19,9.13,7.02l2.38.29c11.73,1.42,23.87,2.9,33.26,9.02,8.71,5.68,16.19,14.51,21.07,24.87,8.65,18.37,6.31,41-6.25,60.53Z"/>
  </g>
</svg>